<svg id="Layer_1" data-name="Layer 1" xmlns="http://www.w3.org/2000/svg" xmlns:xlink="http://www.w3.org/1999/xlink" viewBox="0 0 123.44 94.92"><defs><style>.cls-1{fill:none;}.cls-2{clip-path:url(#clip-path);}.cls-3{fill:#4ec6e1;}.cls-4{fill:#eaf6f6;}.cls-5{font-size:20.91px;fill:#fbd64f;}.cls-5,.cls-6{font-family:MeriendaOne-Regular, Merienda One;}.cls-6{font-size:12.55px;fill:#e25050;}</style><clipPath id="clip-path" transform="translate(-2.89 -2.18)"><polygon class="cls-1" points="125.4 78.09 83.54 18.28 69.88 37.8 48.41 7.13 -1.36 78.23 98.17 78.23 98.08 78.09 125.4 78.09"/></clipPath></defs><title>logo</title><path class="cls-1" d="M29.88,45.24s4.21-.4,6.11,3.21c0,0,5.82-1.2,7.92,2.81A3.77,3.77,0,0,1,47.42,50s3.61-4.31,6.72-2.7L60,44.84v-.9H56.65l6-3.71a3,3,0,0,1,.4-1.71s.2-1.1.5,0a5.13,5.13,0,0,1,.4,1.81l5.62,3.61-3.11.1v.8s1.5-.1,2,.6H74.3l6.32-2.91v-.8H76.71l6.92-4.21v-.6a.44.44,0,0,1-.5-.2s.9-2.81,1.8,0a.43.43,0,0,1-.4.2v.6l7.32,4.31H87.44v.8l10,4.11H90.55v1.41a2.76,2.76,0,0,1,1.6,1.1s2.21-2.51,4.31-.2a3.47,3.47,0,0,1,3.71,1.5s2.76-2.17,4.49-.73.53-15.11.53-15.11l-6-13-23-16.94L46.62,6,23.16,39.92,29.47,45Z" transform="translate(-2.89 -2.18)"/><g id="Mountain"><g class="cls-2"><path class="cls-3" d="M70.64,55.1l.07-.05Z" transform="translate(-2.89 -2.18)"/><path class="cls-3" d="M69.07,56.09l-.39.24-.07,0,0,0H69a.21.21,0,0,0,.21-.21V56l0,0Z" transform="translate(-2.89 -2.18)"/><path class="cls-3" d="M69.35,55.91l-.1.06h0Z" transform="translate(-2.89 -2.18)"/><path class="cls-3" d="M116.93,43.86l-8.37-18.12L76.64,2.18,35.51,4,2.89,51.11l8.78,7.11.56.28s5.85-.56,8.5,4.46c0,0,8.09-1.67,11,3.91a5.24,5.24,0,0,1,4.88-1.82s5-6,9.34-3.76l8.08-3.35V56.69h-4.6l8.37-5.16a4.12,4.12,0,0,1,.55-2.37s.28-1.53.7,0a7.14,7.14,0,0,1,.56,2.51l7.81,5-4.33.14v1.11s2.09-.14,2.79.84H66a9,9,0,0,1,2.57-2.37h0l0,0,.07,0,.39-.24L69.2,56l0,0V52a.2.2,0,0,1,.06-.15l.27-.25a.21.21,0,0,0,.07-.15v-1a.22.22,0,0,1,.2-.21h.07a.21.21,0,0,0,.19-.22l0-.67a.22.22,0,0,1,.2-.22h.07a.21.21,0,0,0,.2-.21v-.63a.18.18,0,0,1,.18-.17h0a.18.18,0,0,0,.18-.18v-.82a.21.21,0,0,1,.21-.21.21.21,0,0,0,.21-.21V46a.2.2,0,0,1,.21-.2.22.22,0,0,0,.21-.21V44.7a.14.14,0,0,1,.14-.14.14.14,0,0,0,.14-.14v-.8a.18.18,0,0,1,.17-.17h0a.18.18,0,0,0,.17-.18v-.68c0-.12.75-.17.75-.05v.77a.14.14,0,0,0,.14.14.14.14,0,0,1,.14.14v.76a.21.21,0,0,0,.21.21.21.21,0,0,1,.21.21v.84a.21.21,0,0,0,.21.21.21.21,0,0,1,.21.2v.7a.21.21,0,0,0,.21.21.2.2,0,0,1,.2.21V48a.22.22,0,0,0,.21.21.2.2,0,0,1,.21.2v.7a.21.21,0,0,0,.21.21.21.21,0,0,1,.21.21v.7a.21.21,0,0,0,.21.21.21.21,0,0,1,.21.21v.95a.2.2,0,0,0,.06.15l.23.23a.2.2,0,0,1,.06.15V56.2a.21.21,0,0,0,.21.21h.36a.17.17,0,0,1,.1,0,5.87,5.87,0,0,1,.86.58l5-2.28V53.62H77.33L87,47.77v-.84a.61.61,0,0,1-.69-.28s1.25-3.9,2.51,0a.61.61,0,0,1-.56.28v.84l10.17,6H92.25v1.12l13.94,5.71H96.57v1.95a3.82,3.82,0,0,1,2.23,1.54s3.07-3.49,6-.28c0,0,3.48-.84,5.16,2.09,0,0,3.83-3,6.24-1S116.93,43.86,116.93,43.86Z" transform="translate(-2.89 -2.18)"/><path class="cls-3" d="M70.31,55.31l-.3.19Z" transform="translate(-2.89 -2.18)"/><path class="cls-3" d="M69.88,55.58l0,0Z" transform="translate(-2.89 -2.18)"/><path class="cls-3" d="M70.4,55.25l.06,0Z" transform="translate(-2.89 -2.18)"/><path class="cls-3" d="M70.55,55.16l-.06,0Z" transform="translate(-2.89 -2.18)"/></g><polygon class="cls-4" points="45.49 4.85 39.59 13.17 39.68 14.91 41.81 11.65 43.23 15.2 44.5 11.65 45.63 15.05 46.63 11.37 48.47 14.77 48.89 10.95 51.3 13.78 51.3 13.1 45.49 4.85"/><polygon class="cls-4" points="80.68 16.07 76.24 22.32 76.31 23.63 77.91 21.18 78.97 23.84 79.93 21.18 80.78 23.73 81.53 20.96 82.91 23.52 83.23 20.65 85.04 22.77 85.04 22.27 80.68 16.07"/></g><text class="cls-5" transform="translate(3.84 78.69)">gaze Nepal</text><text class="cls-6" transform="translate(92.33 90.63)">2020</text></svg>